Coordinates
version=1
nRows=14
nColumns=36
inDegrees=yes

Units are S.I. units (second, meters, Newtons, ...)
If the header above contains a line with 'inDegrees', this indicates whether rotational values are in degrees (yes) or radians (no).

endheader
time	pelvis_tilt	pelvis_list	pelvis_rotation	pelvis_tx	pelvis_ty	pelvis_tz	hip_flexion_r	hip_adduction_r	hip_rotation_r	knee_angle_r	knee_angle_r_beta	ankle_angle_r	subtalar_angle_r	mtp_angle_r	hip_flexion_l	hip_adduction_l	hip_rotation_l	knee_angle_l	knee_angle_l_beta	ankle_angle_l	subtalar_angle_l	mtp_angle_l	lumbar_extension	lumbar_bending	lumbar_rotation	arm_flex_r	arm_add_r	arm_rot_r	elbow_flex_r	pro_sup_r	arm_flex_l	arm_add_l	arm_rot_l	elbow_flex_l	pro_sup_l
      2.55000000	     -7.11574986	      0.63903750	      4.57925836	     -0.04493715	      0.88857078	     -0.05725208	      3.84280510	     -0.67008246	     -9.37358627	      0.56803841	      0.00991414	      2.36458265	      2.16030775	     -7.49999987	      5.30765760	     -3.52778893	     -4.44419213	      0.89968777	      0.01570251	      0.45592127	      5.39911047	     -7.49999987	      2.33271786	      0.12220638	      2.76808660	     45.66904780	     12.91130846	     32.03152359	    126.35630831	     91.82782199	     61.78058759	     17.67869341	     59.15987787	    119.13310226	     77.56674082
      2.56666670	     -6.79464908	      0.65373046	      4.43404992	     -0.04469536	      0.89271936	     -0.05658627	      3.56031829	     -0.59684847	     -9.23741875	      0.58100232	      0.01014040	      2.24388838	      2.10379118	     -7.49999987	      5.01114965	     -3.64276101	     -4.41186105	      0.95840627	      0.01672735	      0.03368259	      5.27361454	     -7.49999987	      2.12180900	     -0.03829949	      2.74797333	     46.20110443	     12.48094781	     30.17537654	    126.15960335	     89.16090924	     62.54962320	     17.12367359	     59.33181848	    116.61231337	     76.94636110
      2.58333330	     -6.86205248	      0.66433446	      4.45097174	     -0.04408335	      0.89465544	     -0.05580742	      3.71787652	     -0.56301784	     -9.27598986	      0.62752087	      0.01095231	      2.00736742	      2.09391094	     -7.49999987	      5.17524652	     -3.67154810	     -4.38761265	      1.04328297	      0.01820872	     -0.23829959	      5.28183207	     -7.49999987	      2.28987335	     -0.16362166	      2.73811789	     46.40031872	     12.43026073	     28.83376407	    125.87372916	     93.63930041	     62.97075543	     16.92205165	     59.00597287	    114.92580376	     82.79857442
      2.60000000	     -6.63280995	      0.70925328	      4.46620817	     -0.04164998	      0.89553979	     -0.05549867	      3.47957589	     -0.55149174	     -9.24896455	      0.66110057	      0.01153838	      1.74462137	      1.96684251	     -7.49999987	      4.95666821	     -3.69952259	     -4.43451791	      1.14516865	      0.01998696	     -0.63014327	      5.44719718	     -7.49999987	      2.17349297	     -0.32762339	      2.91499527	     46.98251862	     11.81608937	     25.58854934	    122.90652635	     93.26708491	     63.14283245	     16.93641302	     58.91295465	    113.29259248	     82.89516186
      2.61666670	     -6.43528505	      0.71036356	      4.53649620	     -0.04168607	      0.89636831	     -0.05494865	      3.30995104	     -0.48917739	     -9.38517664	      0.75169312	      0.01311952	      1.49353588	      1.94962010	     -7.49999987	      4.75246766	     -3.74213917	     -4.27553094	      1.21370469	      0.02118314	     -0.90598041	      5.32515269	     -7.49999987	      2.17505360	     -0.38473707	      2.91228683	     47.11140124	     11.75160937	     23.60475701	    121.98121047	     93.61262463	     62.93524719	     17.11622512	     59.16304091	    112.61682477	     83.10360328
      2.63333330	     -6.23122100	      0.71825742	      4.63032902	     -0.03851143	      0.89451312	     -0.05388667	      3.08995526	     -0.41646217	     -9.26313160	      0.83740365	      0.01461545	      1.22803248	      1.52823422	     -7.49999987	      4.52085892	     -3.79693053	     -4.36310868	      1.33712499	      0.02333723	     -0.97784098	      5.43318795	     -7.49999987	      2.14468958	     -0.47656299	      3.09929841	     47.51682457	     11.66947599	     22.89027613	    123.88548398	     94.01549984	     63.38865292	     17.95158972	     59.38143948	    113.04518000	     85.51026007
      2.65000000	     -6.02866470	      0.71134823	      4.77874301	     -0.03891509	      0.89402394	     -0.05397978	      2.89461742	     -0.35909929	     -9.43278645	      0.98791665	      0.01724240	      1.16353079	      1.39940773	     -7.49999987	      4.31622260	     -3.86149177	     -4.19495584	      1.42088721	      0.02479916	     -0.94837866	      5.44288888	     -7.49999987	      2.25635892	     -0.43676511	      3.07216512	     47.62806183	     11.87770132	     23.20278068	    130.72443464	     95.11804640	     63.65186342	     18.89108514	     60.40105591	    113.82897645	     87.07369945
      2.66666670	     -5.79669361	      0.71734986	      4.93501601	     -0.03836944	      0.89466500	     -0.05288995	      2.71175998	     -0.30357088	     -9.65567200	      1.22794261	      0.02143164	      1.55039726	      1.60498571	     -7.49999987	      4.12435004	     -3.92996361	     -4.22414579	      1.58368806	      0.02764057	     -0.57644250	      5.87692736	     -7.49999987	      2.27844165	     -0.42286981	      3.09136186	     47.60057852	     12.04584823	     23.96745052	    136.50539747	     95.63155110	     63.25051731	     19.55193696	     60.93883173	    115.14617219	     87.81486050
      2.68333330	     -5.72983881	      0.72675650	      5.09365948	     -0.04091469	      0.89385538	     -0.05138547	      2.82765460	     -0.24980995	     -9.30226705	      1.56912615	      0.02738642	      1.43870171	      0.60266690	     -7.49999987	      4.20099455	     -3.98607913	     -3.87962638	      1.77401701	      0.03096244	     -0.54067388	      5.55110057	     -7.49999987	      2.26856910	     -0.34773368	      2.71469864	     47.73868712	     13.03909403	     26.99769659	    141.35062227	     96.79944446	     63.10717427	     19.58720770	     61.59371566	    116.62323698	     90.21568262
      2.70000000	     -5.65423038	      0.72815329	      5.42043252	     -0.04086797	      0.89312797	     -0.05079467	      2.96305786	     -0.20833476	     -9.46382678	      1.90085870	      0.03317624	      1.54928924	      0.25290517	     -7.49999987	      4.37586973	     -4.05571479	     -3.52369668	      2.06700574	      0.03607606	     -0.41727945	      5.39392379	     -7.49999987	      2.14209804	     -0.22573837	      2.23480272	     48.20287650	     13.94137065	     30.92827328	    144.42612688	     97.41332311	     63.18978502	     19.36191377	     62.00745659	    118.02059599	     90.66297509
      2.71666670	     -5.59532117	      0.73583066	      5.61780646	     -0.03864051	      0.89334467	     -0.04867208	      3.07940150	     -0.14171582	     -9.35279528	      2.23928516	      0.03908290	      1.53831735	     -0.33995415	     -7.49999987	      4.51917004	     -4.16053026	     -3.29509490	      2.31567505	      0.04041615	     -0.31012838	      5.40005787	     -7.49999987	      1.98864198	     -0.09323633	      1.74048550	     48.40225636	     15.00045344	     35.36997472	    145.98173574	     98.22602060	     63.29877496	     18.73311815	     61.98517837	    119.14566173	     90.86886073
      2.73333330	     -5.54134475	      0.76818212	      5.87132226	     -0.03944273	      0.89532350	     -0.04840955	      3.20224052	     -0.12480300	     -9.68466398	      2.60819500	      0.04552159	      1.70939174	     -0.47668112	     -7.49999987	      4.72041965	     -4.20880643	     -3.01320810	      2.64426168	      0.04615107	     -0.23920349	      5.26744674	     -7.49999987	      1.61049334	     -0.08652248	      1.70632851	     48.61338853	     15.15070338	     38.64575883	    145.84931376	     97.97750210	     63.59030819	     18.35100584	     62.14222388	    119.61708106	     89.07797502
      2.75000000	     -5.48849305	      0.81719956	      6.19948491	     -0.03812456	      0.89364796	     -0.04814490	      3.25425242	     -0.12122891	     -9.68387741	      2.89235702	      0.05048115	      1.62819860	     -1.07806266	     -7.49999987	      4.91367109	     -4.24750706	     -2.77793068	      3.00234569	      0.05240082	     -0.22986703	      5.22633418	     -7.49999987	      1.22914963	     -0.11322325	      1.94298051	     48.66209645	     14.89983791	     40.71921365	    144.00295202	     99.20931313	     63.85216027	     17.98698322	     61.82984193	    119.35005920	     89.02338985
      2.76666670	     -5.47249406	      0.86351867	      6.47904690	     -0.03837233	      0.89311872	     -0.04595437	      3.38449245	     -0.11112204	     -9.88557582	      3.20056068	      0.05586032	      1.75931944	     -1.32243834	     -7.49999987	      5.19216766	     -4.29888756	     -2.48129535	      3.47388104	      0.06063066	     -0.06531303	      5.12569847	     -7.49999987	      0.89343698	     -0.14234536	      2.25157519	     48.33959121	     14.46302958	     41.34083705	    141.45211068	     98.80129334	     64.15150012	     17.98475661	     61.95468241	    119.80423583	     87.98560119
